<svg width="153" height="144" viewBox="0 0 153 144" fill="none" xmlns="http://www.w3.org/2000/svg">
<path d="M101.279 8.47057C102.091 5.83126 100.61 3.03334 97.9705 2.22124C95.3312 1.40915 92.5333 2.8904 91.7212 5.52971L51.7212 135.53C50.9091 138.169 52.3904 140.967 55.0297 141.779C57.669 142.591 60.4669 141.11 61.279 138.471L101.279 8.47057Z" fill="#0000FF"/>
<path d="M45.0355 33.4645C46.9882 35.4171 46.9882 38.5829 45.0355 40.5356L13.5711 72L45.0355 103.464C46.9882 105.417 46.9882 108.583 45.0355 110.536C43.0829 112.488 39.9171 112.488 37.9645 110.536L2.96447 75.5356C1.01184 73.5829 1.01184 70.4171 2.96447 68.4645L37.9645 33.4645C39.9171 31.5119 43.0829 31.5119 45.0355 33.4645Z" fill="#0000FF"/>
<path d="M107.964 33.4645C106.012 35.4171 106.012 38.5829 107.964 40.5356L139.429 72L107.964 103.464C106.012 105.417 106.012 108.583 107.964 110.536C109.917 112.488 113.083 112.488 115.036 110.536L150.036 75.5356C151.988 73.5829 151.988 70.4171 150.036 68.4645L115.036 33.4645C113.083 31.5119 109.917 31.5119 107.964 33.4645Z" fill="#0000FF"/>
<path d="M101.279 8.47057C102.091 5.83126 100.61 3.03334 97.9705 2.22124C95.3312 1.40915 92.5333 2.8904 91.7212 5.52971L51.7212 135.53C50.9091 138.169 52.3904 140.967 55.0297 141.779C57.669 142.591 60.4669 141.11 61.279 138.471L101.279 8.47057Z" stroke="#E3F6F5" stroke-width="3" stroke-linecap="round" stroke-linejoin="round"/>
<path d="M45.0355 33.4645C46.9882 35.4171 46.9882 38.5829 45.0355 40.5356L13.5711 72L45.0355 103.464C46.9882 105.417 46.9882 108.583 45.0355 110.536C43.0829 112.488 39.9171 112.488 37.9645 110.536L2.96447 75.5356C1.01184 73.5829 1.01184 70.4171 2.96447 68.4645L37.9645 33.4645C39.9171 31.5119 43.0829 31.5119 45.0355 33.4645Z" stroke="#E3F6F5" stroke-width="3" stroke-linecap="round" stroke-linejoin="round"/>
<path d="M107.964 33.4645C106.012 35.4171 106.012 38.5829 107.964 40.5356L139.429 72L107.964 103.464C106.012 105.417 106.012 108.583 107.964 110.536C109.917 112.488 113.083 112.488 115.036 110.536L150.036 75.5356C151.988 73.5829 151.988 70.4171 150.036 68.4645L115.036 33.4645C113.083 31.5119 109.917 31.5119 107.964 33.4645Z" stroke="#E3F6F5" stroke-width="3" stroke-linecap="round" stroke-linejoin="round"/>
</svg>
